<?xml version="1.0" encoding="utf-8"?>
<!-- Designed by Vexels.com - 2020 All Rights Reserved - https://vexels.com/terms-and-conditions/  -->
<svg version="1.1" id="Capa_1" xmlns="http://www.w3.org/2000/svg" xmlns:xlink="http://www.w3.org/1999/xlink" x="0px" y="0px"
	 viewBox="0 0 1200 1200" enable-background="new 0 0 1200 1200" xml:space="preserve">
<g>
	<path fill="#06AA51" d="M611.548,242.494c-7.655-9.699-22.364-9.759-30.106-0.13c-342.673,426.207-79.368,546.816-12.867,569.25
		c8.33,2.81,13.736,10.871,13.098,19.64c-4.703,64.663-7.952,96.038-9.985,111.259c-1.347,10.084,5.455,19.422,15.438,21.38
		c5.676,1.114,9.45,0.911,9.45,0.911s3.774,0.203,9.45-0.911c9.983-1.958,16.785-11.297,15.438-21.38
		c-2.038-15.259-5.298-46.751-10.02-111.738c-0.621-8.543,4.494-16.449,12.521-19.44
		C687.888,787.52,942.009,661.179,611.548,242.494z M618.696,430.865c-5.293,30.382-14.662,60.04-20.674,90.341
		c-17.016,85.756-6.825,174.292,3.421,261.118c-18.301-22.606-29.852-50.074-37.011-78.264
		c-10.303-40.574-11.866-83.265-5.317-124.611c6.605-41.693,21.246-81.616,32.441-122.318c6.5-23.635,11.782-47.73,13.894-72.189
		c2.182-25.258-1.763-48.051-5.052-72.751c23.551,24.829,24.418,71.016,20.66,102.678
		C620.421,420.228,619.62,425.557,618.696,430.865z"/>
	<path fill="#06AA51" d="M1139.937,609.66c-93.952-33.232-227.686-51.682-330.788-24.506c1.64,30.492-1.27,59.343-8.862,86.46
		c-6.261,22.361-15.246,42.051-25.897,59.38c12.102-10.352,25.235-19.47,38.982-27.471c15.068-8.701,30.654-16.41,46.609-23.082
		c55.38-23.154,115.14-31.739,174.922-29.557c4.092,0.086,8.201,0.008,12.303-0.322c4.106-0.304,8.234-0.767,12.27-1.833
		c-7.453,3.885-15.761,6.111-24.085,7.746c-55.736,10.948-111.018,24.289-161.287,52.827
		c-49.297,27.559-87.992,68.518-134.624,99.455c-7.041,4.671-14.424,9.132-22.886,13.481c0.57-9.588,3.273-18.348,6.618-26.624
		c1.309-3.196,2.79-6.285,4.354-9.319c-21.525,19.021-43.987,32.71-62.953,42.206c0.752,3.536,1.512,7.078,2.388,10.701
		c2.873,11.881,0.358,18.672-2.842,22.902c-5.433,7.182-10.951,14.068-16.504,20.724c1.953,23.038,3.5,38.203,4.67,48.136
		c8.881-14.771,18.631-29.92,31.713-42.971c3.493-3.485,7.241-9.12,19.481-0.844c197.944,133.829,346.817-103.705,444.671-254.326
		C1150.459,629.335,1152.9,614.245,1139.937,609.66z"/>
	<path fill="#06AA51" d="M536.663,861.665c-0.74-0.801-1.378-1.608-1.838-2.435c-1.795-3.224-1.019-26.662-0.356-26.341
		c-19.663-9.527-38.796-19.266-56.629-32.067c2.392,6.735,4.196,13.812,4.648,21.417c-15.102-7.761-29.532-17.43-42.939-27.836
		c-56.599-43.382-111.11-92.258-180.298-115.068c-31.16-10.273-63.293-17.125-95.559-22.859c-8.324-1.635-16.632-3.861-24.085-7.746
		c17.912,4.734,38.263,1.233,56.643,1.805c49.751,1.549,96.817,10.643,142.852,29.907c21.762,9.107,43.278,20.161,62.862,33.335
		c-5.922-11.773-11.038-24.501-15.064-38.288c-8.494-29.087-11.398-60.283-8.789-93.506
		c-101.166-22.529-228.264-5.684-317.753,27.677c-13.964,5.206-10.522,19.675-8.255,23.164
		c97.853,150.621,246.726,388.155,444.671,254.326c12.24-8.276,15.988-2.64,19.481,0.844c10.188,10.163,18.35,21.6,25.66,33.139
		c1.144-10.823,2.552-25.767,4.237-46.229C546.56,869.484,540.344,865.648,536.663,861.665z"/>
</g>
</svg>
